<?xml version="1.0" encoding="UTF-8"?>
<svg width="600" height="400" viewBox="0 0 600 400" xmlns="http://www.w3.org/2000/svg">
  <!-- Sky background -->
  <rect width="600" height="400" fill="#87ceeb" />
  
  <!-- Apartment buildings -->
  <g>
    <!-- Building 1 -->
    <rect x="20" y="100" width="120" height="300" fill="#d3d3d3" stroke="#555" stroke-width="2" />
    <g transform="translate(20, 100)">
      <!-- Windows -->
      <rect x="15" y="20" width="20" height="30" fill="#a6d8ff" stroke="#555" />
      <rect x="50" y="20" width="20" height="30" fill="#a6d8ff" stroke="#555" />
      <rect x="85" y="20" width="20" height="30" fill="#a6d8ff" stroke="#555" />
      
      <rect x="15" y="70" width="20" height="30" fill="#a6d8ff" stroke="#555" />
      <rect x="50" y="70" width="20" height="30" fill="#a6d8ff" stroke="#555" />
      <rect x="85" y="70" width="20" height="30" fill="#a6d8ff" stroke="#555" />
      
      <rect x="15" y="120" width="20" height="30" fill="#a6d8ff" stroke="#555" />
      <rect x="50" y="120" width="20" height="30" fill="#a6d8ff" stroke="#555" />
      <rect x="85" y="120" width="20" height="30" fill="#a6d8ff" stroke="#555" />
      
      <rect x="15" y="170" width="20" height="30" fill="#a6d8ff" stroke="#555" />
      <rect x="50" y="170" width="20" height="30" fill="#a6d8ff" stroke="#555" />
      <rect x="85" y="170" width="20" height="30" fill="#a6d8ff" stroke="#555" />
      
      <rect x="15" y="220" width="20" height="30" fill="#a6d8ff" stroke="#555" />
      <rect x="50" y="220" width="20" height="30" fill="#a6d8ff" stroke="#555" />
      <rect x="85" y="220" width="20" height="30" fill="#a6d8ff" stroke="#555" />
      
      <!-- Door -->
      <rect x="50" y="270" width="25" height="30" fill="#8b4513" stroke="#555" />
    </g>
    
    <!-- Building 2 -->
    <rect x="160" y="150" width="100" height="250" fill="#e5e5e5" stroke="#555" stroke-width="2" />
    <g transform="translate(160, 150)">
      <!-- Windows -->
      <rect x="15" y="20" width="20" height="30" fill="#a6d8ff" stroke="#555" />
      <rect x="65" y="20" width="20" height="30" fill="#a6d8ff" stroke="#555" />
      
      <rect x="15" y="70" width="20" height="30" fill="#a6d8ff" stroke="#555" />
      <rect x="65" y="70" width="20" height="30" fill="#a6d8ff" stroke="#555" />
      
      <rect x="15" y="120" width="20" height="30" fill="#a6d8ff" stroke="#555" />
      <rect x="65" y="120" width="20" height="30" fill="#a6d8ff" stroke="#555" />
      
      <rect x="15" y="170" width="20" height="30" fill="#a6d8ff" stroke="#555" />
      <rect x="65" y="170" width="20" height="30" fill="#a6d8ff" stroke="#555" />
      
      <!-- Door -->
      <rect x="40" y="220" width="25" height="30" fill="#8b4513" stroke="#555" />
    </g>
    
    <!-- Building 3 -->
    <rect x="280" y="80" width="140" height="320" fill="#d3d3d3" stroke="#555" stroke-width="2" />
    <g transform="translate(280, 80)">
      <!-- Windows -->
      <rect x="20" y="20" width="20" height="30" fill="#a6d8ff" stroke="#555" />
      <rect x="60" y="20" width="20" height="30" fill="#a6d8ff" stroke="#555" />
      <rect x="100" y="20" width="20" height="30" fill="#a6d8ff" stroke="#555" />
      
      <rect x="20" y="70" width="20" height="30" fill="#a6d8ff" stroke="#555" />
      <rect x="60" y="70" width="20" height="30" fill="#a6d8ff" stroke="#555" />
      <rect x="100" y="70" width="20" height="30" fill="#a6d8ff" stroke="#555" />
      
      <rect x="20" y="120" width="20" height="30" fill="#a6d8ff" stroke="#555" />
      <rect x="60" y="120" width="20" height="30" fill="#a6d8ff" stroke="#555" />
      <rect x="100" y="120" width="20" height="30" fill="#a6d8ff" stroke="#555" />
      
      <rect x="20" y="170" width="20" height="30" fill="#a6d8ff" stroke="#555" />
      <rect x="60" y="170" width="20" height="30" fill="#a6d8ff" stroke="#555" />
      <rect x="100" y="170" width="20" height="30" fill="#a6d8ff" stroke="#555" />
      
      <rect x="20" y="220" width="20" height="30" fill="#a6d8ff" stroke="#555" />
      <rect x="60" y="220" width="20" height="30" fill="#a6d8ff" stroke="#555" />
      <rect x="100" y="220" width="20" height="30" fill="#a6d8ff" stroke="#555" />
      
      <rect x="20" y="270" width="20" height="30" fill="#a6d8ff" stroke="#555" />
      <rect x="60" y="270" width="20" height="30" fill="#a6d8ff" stroke="#555" />
      <rect x="100" y="270" width="20" height="30" fill="#a6d8ff" stroke="#555" />
      
      <!-- Door -->
      <rect x="60" y="290" width="25" height="30" fill="#8b4513" stroke="#555" />
    </g>
  </g>
  
  <!-- Dog park area -->
  <rect x="20" y="350" width="560" height="50" fill="#90ee90" stroke="#006400" stroke-width="2" />
  
  <!-- Dog park fence -->
  <g stroke="#8b4513" stroke-width="3" fill="none">
    <line x1="440" y1="350" x2="440" y2="400" />
    <line x1="460" y1="350" x2="460" y2="400" />
    <line x1="480" y1="350" x2="480" y2="400" />
    <line x1="500" y1="350" x2="500" y2="400" />
    <line x1="520" y1="350" x2="520" y2="400" />
    <line x1="540" y1="350" x2="540" y2="400" />
    <line x1="560" y1="350" x2="560" y2="400" />
    <line x1="440" y1="365" x2="580" y2="365" />
    <line x1="440" y1="380" x2="580" y2="380" />
  </g>
  
  <!-- Dog park sign -->
  <rect x="460" y="320" width="80" height="30" fill="white" stroke="#333" stroke-width="2" rx="5" />
  <text x="470" y="340" fill="#333" font-family="Arial" font-size="12" font-weight="bold">DOG PARK</text>
  
  <!-- Dogs in the park -->
  <g transform="translate(500, 380) scale(0.4)">
    <ellipse cx="0" cy="0" rx="40" ry="25" fill="brown" stroke="#333" stroke-width="3" /> <!-- Body -->
    <circle cx="-35" cy="-10" r="25" fill="brown" stroke="#333" stroke-width="3" /> <!-- Head -->
    <ellipse cx="-37" cy="-5" rx="6" ry="4" fill="black" /> <!-- Nose -->
    <circle cx="-45" cy="-15" r="3" fill="black" /> <!-- Eye -->
    <circle cx="-30" cy="-15" r="3" fill="black" /> <!-- Eye -->
    <path d="M35,0 Q50,-15 60,0" fill="brown" stroke="#333" stroke-width="3" /> <!-- Tail -->
  </g>
  
  <g transform="translate(530, 380) scale(0.3)">
    <ellipse cx="0" cy="0" rx="40" ry="25" fill="white" stroke="#333" stroke-width="3" /> <!-- Body -->
    <circle cx="-35" cy="-10" r="25" fill="white" stroke="#333" stroke-width="3" /> <!-- Head -->
    <ellipse cx="-37" cy="-5" rx="6" ry="4" fill="black" /> <!-- Nose -->
    <circle cx="-45" cy="-15" r="3" fill="black" /> <!-- Eye -->
    <circle cx="-30" cy="-15" r="3" fill="black" /> <!-- Eye -->
    <path d="M35,0 Q50,-15 60,0" fill="white" stroke="#333" stroke-width="3" /> <!-- Tail -->
  </g>
  
  <!-- Trees -->
  <g transform="translate(50, 350)">
    <rect x="-5" y="-40" width="10" height="40" fill="#8b4513" />
    <circle cx="0" cy="-60" r="25" fill="green" />
  </g>
  
  <g transform="translate(150, 350)">
    <rect x="-5" y="-40" width="10" height="40" fill="#8b4513" />
    <circle cx="0" cy="-60" r="25" fill="green" />
  </g>
  
  <g transform="translate(250, 350)">
    <rect x="-5" y="-40" width="10" height="40" fill="#8b4513" />
    <circle cx="0" cy="-60" r="25" fill="green" />
  </g>
  
  <g transform="translate(350, 350)">
    <rect x="-5" y="-40" width="10" height="40" fill="#8b4513" />
    <circle cx="0" cy="-60" r="25" fill="green" />
  </g>
  
  <!-- Sun -->
  <circle cx="60" cy="60" r="40" fill="#ffdd00" />
  <g fill="none" stroke="#ffdd00" stroke-width="3">
    <line x1="60" y1="10" x2="60" y2="-10" />
    <line x1="60" y1="130" x2="60" y2="110" />
    <line x1="10" y1="60" x2="-10" y2="60" />
    <line x1="110" y1="60" x2="130" y2="60" />
    <line x1="25" y1="25" x2="10" y2="10" />
    <line x1="95" y1="95" x2="110" y2="110" />
    <line x1="25" y1="95" x2="10" y2="110" />
    <line x1="95" y1="25" x2="110" y2="10" />
  </g>
  
  <!-- Clouds -->
  <g fill="white">
    <ellipse cx="200" cy="50" rx="50" ry="20" />
    <ellipse cx="180" cy="40" rx="30" ry="15" />
    <ellipse cx="230" cy="40" rx="35" ry="18" />
    
    <ellipse cx="400" cy="70" rx="60" ry="25" />
    <ellipse cx="370" cy="60" rx="40" ry="20" />
    <ellipse cx="440" cy="60" rx="45" ry="22" />
  </g>
</svg>