<?xml version="1.0" encoding="UTF-8"?>
<svg width="200" height="200" viewBox="0 0 200 200" xmlns="http://www.w3.org/2000/svg">
  <style>
    .building {
      fill: #B0BEC5;
    }
    .window {
      fill: #CFD8DC;
    }
    .window-night {
      fill: #FFEB3B;
      animation: flicker 4s infinite alternate;
    }
    .grass {
      fill: #4CAF50;
    }
    .sky {
      fill: #90CAF9;
    }
    .fence {
      fill: #8D6E63;
    }
    .dog {
      fill: #D7CCC8;
    }
    .dog-spots {
      fill: #A1887F;
    }
    .dog-run {
      animation: run 5s infinite linear;
      transform-origin: center;
    }
    @keyframes flicker {
      0%, 80%, 100% { opacity: 1; }
      90% { opacity: 0.8; }
    }
    @keyframes run {
      0% { transform: translateX(-40px); }
      50% { transform: translateX(40px); }
      100% { transform: translateX(-40px); }
    }
  </style>

  <!-- Background -->
  <rect width="200" height="200" fill="#f9f9f9" />
  
  <!-- Sky -->
  <rect x="0" y="0" width="200" height="80" class="sky" />
  
  <!-- Clouds -->
  <ellipse cx="30" cy="30" rx="15" ry="8" fill="white" />
  <ellipse cx="40" cy="35" rx="10" ry="6" fill="white" />
  <ellipse cx="160" cy="20" rx="20" ry="10" fill="white" />
  <ellipse cx="175" cy="25" rx="15" ry="8" fill="white" />
  
  <!-- Buildings -->
  <rect x="10" y="20" width="40" height="120" class="building" />
  <rect x="150" y="30" width="40" height="110" class="building" />
  <rect x="80" y="40" width="60" height="100" class="building" />
  
  <!-- Windows -->
  <g>
    <!-- Left building -->
    <rect x="15" y="30" width="8" height="10" class="window" />
    <rect x="30" y="30" width="8" height="10" class="window" />
    <rect x="15" y="50" width="8" height="10" class="window-night" />
    <rect x="30" y="50" width="8" height="10" class="window" />
    <rect x="15" y="70" width="8" height="10" class="window" />
    <rect x="30" y="70" width="8" height="10" class="window-night" />
    <rect x="15" y="90" width="8" height="10" class="window-night" />
    <rect x="30" y="90" width="8" height="10" class="window" />
    <rect x="15" y="110" width="8" height="10" class="window" />
    <rect x="30" y="110" width="8" height="10" class="window" />
    
    <!-- Middle building -->
    <rect x="90" y="50" width="10" height="10" class="window-night" />
    <rect x="110" y="50" width="10" height="10" class="window" />
    <rect x="90" y="70" width="10" height="10" class="window" />
    <rect x="110" y="70" width="10" height="10" class="window-night" />
    <rect x="90" y="90" width="10" height="10" class="window" />
    <rect x="110" y="90" width="10" height="10" class="window" />
    <rect x="90" y="110" width="10" height="10" class="window-night" />
    <rect x="110" y="110" width="10" height="10" class="window" />
    
    <!-- Right building -->
    <rect x="155" y="40" width="8" height="10" class="window" />
    <rect x="170" y="40" width="8" height="10" class="window-night" />
    <rect x="155" y="60" width="8" height="10" class="window-night" />
    <rect x="170" y="60" width="8" height="10" class="window" />
    <rect x="155" y="80" width="8" height="10" class="window" />
    <rect x="170" y="80" width="8" height="10" class="window" />
    <rect x="155" y="100" width="8" height="10" class="window-night" />
    <rect x="170" y="100" width="8" height="10" class="window" />
    <rect x="155" y="120" width="8" height="10" class="window" />
    <rect x="170" y="120" width="8" height="10" class="window-night" />
  </g>
  
  <!-- Dog Park Area -->
  <rect x="0" y="140" width="200" height="60" class="grass" />
  
  <!-- Fence -->
  <rect x="50" y="140" width="100" height="4" class="fence" />
  <rect x="50" y="140" width="4" height="20" class="fence" />
  <rect x="70" y="140" width="4" height="20" class="fence" />
  <rect x="90" y="140" width="4" height="20" class="fence" />
  <rect x="110" y="140" width="4" height="20" class="fence" />
  <rect x="130" y="140" width="4" height="20" class="fence" />
  <rect x="146" y="140" width="4" height="20" class="fence" />
  
  <!-- Dogs -->
  <g class="dog-run">
    <!-- Dog 1 -->
    <ellipse cx="80" cy="170" rx="15" ry="10" class="dog" />
    <circle cx="65" cy="170" r="8" class="dog" />
    <ellipse cx="62" cy="167" rx="2" ry="2" fill="black" />
    <path d="M92,170 C100,165 105,175 110,170" stroke="#D7CCC8" stroke-width="3" fill="none" />
    
    <!-- Dog 2 -->
    <ellipse cx="120" cy="180" rx="10" ry="7" class="dog-spots" />
    <circle cx="110" cy="180" r="6" class="dog-spots" />
    <ellipse cx="107" cy="178" rx="1.5" ry="1.5" fill="black" />
    <path d="M128,180 C133,177 138,183 140,180" stroke="#A1887F" stroke-width="2" fill="none" />
  </g>
  
  <!-- Trees -->
  <rect x="30" y="150" width="6" height="20" fill="#795548" />
  <circle cx="33" cy="145" r="10" fill="#388E3C" />
  
  <rect x="170" y="160" width="6" height="20" fill="#795548" />
  <circle cx="173" cy="155" r="12" fill="#388E3C" />
</svg>