<?xml version="1.0" encoding="UTF-8"?>
<svg width="1200" height="500" viewBox="0 0 1200 500" xmlns="http://www.w3.org/2000/svg">
  <!-- Cloud Only Pattern - No Paw Prints -->
  <g fill="white" opacity="0.8">
    <!-- Cloud 1 -->
    <path d="M180,100 C150,85 110,90 90,120 C70,150 80,190 110,210 C130,222 160,220 185,200 C210,180 240,160 230,130 C220,100 205,80 180,100 Z" />
    
    <!-- Cloud 2 -->
    <path d="M500,180 C470,165 430,170 410,200 C390,230 400,270 430,290 C450,302 480,300 505,280 C530,260 560,240 550,210 C540,180 525,160 500,180 Z" />
    
    <!-- Cloud 3 -->
    <path d="M820,120 C790,105 750,110 730,140 C710,170 720,210 750,230 C770,242 800,240 825,220 C850,200 880,180 870,150 C860,120 845,100 820,120 Z" />
    
    <!-- Cloud 4 -->
    <path d="M280,320 C250,305 210,310 190,340 C170,370 180,410 210,430 C230,442 260,440 285,420 C310,400 340,380 330,350 C320,320 305,300 280,320 Z" />
    
    <!-- Cloud 5 -->
    <path d="M620,380 C590,365 550,370 530,400 C510,430 520,470 550,490 C570,502 600,500 625,480 C650,460 680,440 670,410 C660,380 645,360 620,380 Z" />
    
    <!-- Cloud 6 -->
    <path d="M940,300 C910,285 870,290 850,320 C830,350 840,390 870,410 C890,422 920,420 945,400 C970,380 1000,360 990,330 C980,300 965,280 940,300 Z" />
    
    <!-- Cloud 7 -->
    <path d="M1100,200 C1070,185 1030,190 1010,220 C990,250 1000,290 1030,310 C1050,322 1080,320 1105,300 C1130,280 1160,260 1150,230 C1140,200 1125,180 1100,200 Z" />
    
    <!-- Cloud 8 -->
    <path d="M380,150 C350,135 310,140 290,170 C270,200 280,240 310,260 C330,272 360,270 385,250 C410,230 440,210 430,180 C420,150 405,130 380,150 Z" />
  </g>
</svg>