<?xml version="1.0" encoding="UTF-8"?>
<svg width="200" height="200" viewBox="0 0 200 200" xmlns="http://www.w3.org/2000/svg">
  <style>
    .dog {
      fill: #0084ff;
    }
    .goggles {
      fill: #333;
    }
    .beret {
      fill: #cc0000;
    }
    .body {
      animation: wiggle 2s infinite alternate;
      transform-origin: bottom center;
    }
    @keyframes wiggle {
      0% { transform: rotate(-3deg); }
      100% { transform: rotate(3deg); }
    }
  </style>

  <!-- Background circle -->
  <circle cx="100" cy="100" r="90" fill="#f9f9f9" />
  
  <!-- Dog body -->
  <g class="body">
    <ellipse cx="100" cy="120" rx="60" ry="50" class="dog" />
    
    <!-- Head -->
    <circle cx="100" cy="70" r="40" class="dog" />
    
    <!-- Ears -->
    <ellipse cx="65" cy="55" rx="20" ry="25" class="dog" transform="rotate(-30 65 55)" />
    <ellipse cx="135" cy="55" rx="20" ry="25" class="dog" transform="rotate(30 135 55)" />
    
    <!-- Beret -->
    <ellipse cx="100" cy="40" rx="30" ry="10" class="beret" />
    <circle cx="85" cy="35" r="5" fill="#ffff00" />
    
    <!-- Goggles -->
    <circle cx="85" cy="70" r="12" class="goggles" />
    <circle cx="115" cy="70" r="12" class="goggles" />
    <rect x="85" y="70" width="30" height="5" class="goggles" />
    
    <!-- Nose -->
    <ellipse cx="100" cy="85" rx="10" ry="7" fill="#333" />
    
    <!-- Tongue -->
    <ellipse cx="100" cy="95" rx="8" ry="5" fill="#cc0000" />
  </g>
  
  <!-- Paw prints -->
  <g fill="#0084ff" opacity="0.5">
    <circle cx="40" cy="160" r="5" />
    <circle cx="50" cy="155" r="5" />
    <circle cx="40" cy="145" r="5" />
    <circle cx="30" cy="155" r="5" />
    
    <circle cx="160" cy="160" r="5" />
    <circle cx="170" cy="155" r="5" />
    <circle cx="160" cy="145" r="5" />
    <circle cx="150" cy="155" r="5" />
  </g>
</svg>