<?xml version="1.0" encoding="UTF-8"?>
<svg width="600" height="400" viewBox="0 0 600 400" xmlns="http://www.w3.org/2000/svg">
  <!-- Grassy background -->
  <rect width="600" height="400" fill="#90ee90" />
  
  <!-- Sun -->
  <circle cx="500" cy="80" r="60" fill="#ffdd00" />
  
  <!-- Clouds -->
  <ellipse cx="150" cy="70" rx="70" ry="40" fill="white" />
  <ellipse cx="200" cy="50" rx="60" ry="30" fill="white" />
  <ellipse cx="100" cy="50" rx="50" ry="30" fill="white" />
  
  <!-- Great Pyrenees dog -->
  <g transform="translate(300, 250) scale(1.2)">
    <!-- Body -->
    <ellipse cx="-20" cy="0" rx="100" ry="60" fill="white" stroke="#333" stroke-width="2" />
    
    <!-- Head -->
    <circle cx="-120" cy="-20" r="60" fill="white" stroke="#333" stroke-width="2" />
    
    <!-- Ears -->
    <path d="M-160,-40 Q-190,-60 -180,-20 Z" fill="white" stroke="#333" stroke-width="2" />
    <path d="M-100,-50 Q-70,-70 -90,-20 Z" fill="white" stroke="#333" stroke-width="2" />
    
    <!-- Face -->
    <circle cx="-140" cy="-30" r="6" fill="black" /> <!-- Left eye -->
    <circle cx="-110" cy="-30" r="6" fill="black" /> <!-- Right eye -->
    <ellipse cx="-125" cy="-10" rx="15" ry="10" fill="black" /> <!-- Nose -->
    
    <!-- Smile -->
    <path d="M-145,5 Q-125,20 -105,5" fill="none" stroke="black" stroke-width="2" />
    
    <!-- Tail -->
    <path d="M70,0 Q100,-40 120,-10" fill="white" stroke="#333" stroke-width="2" />
    
    <!-- Legs -->
    <rect x="-70" y="50" width="20" height="50" rx="10" fill="white" stroke="#333" stroke-width="2" />
    <rect x="-20" y="50" width="20" height="50" rx="10" fill="white" stroke="#333" stroke-width="2" />
    <rect x="10" y="50" width="20" height="50" rx="10" fill="white" stroke="#333" stroke-width="2" />
    <rect x="-100" y="50" width="20" height="50" rx="10" fill="white" stroke="#333" stroke-width="2" />
    
    <!-- Collar -->
    <path d="M-140,30 Q-125,40 -110,30" fill="none" stroke="#0084ff" stroke-width="8" />
  </g>
  
  <!-- Grass details -->
  <g stroke="#006400" stroke-width="2" fill="none">
    <path d="M50,400 C60,380 70,390 80,370" />
    <path d="M150,400 C160,380 170,390 180,370" />
    <path d="M250,400 C260,380 270,390 280,370" />
    <path d="M350,400 C360,380 370,390 380,370" />
    <path d="M450,400 C460,380 470,390 480,370" />
    <path d="M550,400 C560,380 570,390 580,370" />
  </g>
</svg>