<?xml version="1.0" encoding="UTF-8"?>
<svg width="1200" height="400" viewBox="0 0 1200 400" xmlns="http://www.w3.org/2000/svg">
  <style>
    .cloud {
      fill: white;
      opacity: 0.5;
    }
    .paw {
      fill: white;
      opacity: 0.3;
    }
    .cloud-float-1 {
      animation: float1 20s ease-in-out infinite;
    }
    .cloud-float-2 {
      animation: float2 25s ease-in-out infinite;
    }
    @keyframes float1 {
      0%, 100% { transform: translateX(0) translateY(0); }
      50% { transform: translateX(30px) translateY(-10px); }
    }
    @keyframes float2 {
      0%, 100% { transform: translateX(0) translateY(0); }
      50% { transform: translateX(-30px) translateY(10px); }
    }
  </style>

  <!-- Cloud 1 -->
  <g class="cloud cloud-float-1">
    <ellipse cx="150" cy="100" rx="100" ry="50" />
    <ellipse cx="200" cy="70" rx="70" ry="40" />
    <ellipse cx="100" cy="80" rx="80" ry="45" />
  </g>
  
  <!-- Cloud 2 -->
  <g class="cloud cloud-float-2">
    <ellipse cx="450" cy="150" rx="120" ry="60" />
    <ellipse cx="500" cy="120" rx="80" ry="45" />
    <ellipse cx="400" cy="130" rx="90" ry="55" />
  </g>
  
  <!-- Cloud 3 -->
  <g class="cloud cloud-float-1">
    <ellipse cx="800" cy="80" rx="110" ry="45" />
    <ellipse cx="850" cy="60" rx="75" ry="35" />
    <ellipse cx="750" cy="70" rx="85" ry="40" />
  </g>
  
  <!-- Cloud 4 -->
  <g class="cloud cloud-float-2">
    <ellipse cx="1050" cy="180" rx="100" ry="55" />
    <ellipse cx="1100" cy="150" rx="70" ry="40" />
    <ellipse cx="1000" cy="160" rx="80" ry="50" />
  </g>
  
  <!-- Paw Prints -->
  <!-- Row 1 -->
  <g class="paw" transform="translate(100, 200) rotate(30)">
    <ellipse cx="0" cy="-15" rx="8" ry="10" />
    <ellipse cx="20" cy="-15" rx="8" ry="10" />
    <ellipse cx="-5" cy="10" rx="6" ry="8" />
    <ellipse cx="25" cy="10" rx="6" ry="8" />
    <ellipse cx="10" cy="0" rx="12" ry="10" />
  </g>
  
  <g class="paw" transform="translate(300, 280) rotate(-20)">
    <ellipse cx="0" cy="-15" rx="8" ry="10" />
    <ellipse cx="20" cy="-15" rx="8" ry="10" />
    <ellipse cx="-5" cy="10" rx="6" ry="8" />
    <ellipse cx="25" cy="10" rx="6" ry="8" />
    <ellipse cx="10" cy="0" rx="12" ry="10" />
  </g>
  
  <g class="paw" transform="translate(500, 220) rotate(15)">
    <ellipse cx="0" cy="-15" rx="8" ry="10" />
    <ellipse cx="20" cy="-15" rx="8" ry="10" />
    <ellipse cx="-5" cy="10" rx="6" ry="8" />
    <ellipse cx="25" cy="10" rx="6" ry="8" />
    <ellipse cx="10" cy="0" rx="12" ry="10" />
  </g>
  
  <g class="paw" transform="translate(700, 300) rotate(-10)">
    <ellipse cx="0" cy="-15" rx="8" ry="10" />
    <ellipse cx="20" cy="-15" rx="8" ry="10" />
    <ellipse cx="-5" cy="10" rx="6" ry="8" />
    <ellipse cx="25" cy="10" rx="6" ry="8" />
    <ellipse cx="10" cy="0" rx="12" ry="10" />
  </g>
  
  <g class="paw" transform="translate(900, 250) rotate(25)">
    <ellipse cx="0" cy="-15" rx="8" ry="10" />
    <ellipse cx="20" cy="-15" rx="8" ry="10" />
    <ellipse cx="-5" cy="10" rx="6" ry="8" />
    <ellipse cx="25" cy="10" rx="6" ry="8" />
    <ellipse cx="10" cy="0" rx="12" ry="10" />
  </g>
  
  <g class="paw" transform="translate(1100, 220) rotate(-15)">
    <ellipse cx="0" cy="-15" rx="8" ry="10" />
    <ellipse cx="20" cy="-15" rx="8" ry="10" />
    <ellipse cx="-5" cy="10" rx="6" ry="8" />
    <ellipse cx="25" cy="10" rx="6" ry="8" />
    <ellipse cx="10" cy="0" rx="12" ry="10" />
  </g>
  
  <!-- Row 2 -->
  <g class="paw" transform="translate(200, 350) rotate(-25)">
    <ellipse cx="0" cy="-15" rx="8" ry="10" />
    <ellipse cx="20" cy="-15" rx="8" ry="10" />
    <ellipse cx="-5" cy="10" rx="6" ry="8" />
    <ellipse cx="25" cy="10" rx="6" ry="8" />
    <ellipse cx="10" cy="0" rx="12" ry="10" />
  </g>
  
  <g class="paw" transform="translate(400, 330) rotate(20)">
    <ellipse cx="0" cy="-15" rx="8" ry="10" />
    <ellipse cx="20" cy="-15" rx="8" ry="10" />
    <ellipse cx="-5" cy="10" rx="6" ry="8" />
    <ellipse cx="25" cy="10" rx="6" ry="8" />
    <ellipse cx="10" cy="0" rx="12" ry="10" />
  </g>
  
  <g class="paw" transform="translate(600, 360) rotate(-10)">
    <ellipse cx="0" cy="-15" rx="8" ry="10" />
    <ellipse cx="20" cy="-15" rx="8" ry="10" />
    <ellipse cx="-5" cy="10" rx="6" ry="8" />
    <ellipse cx="25" cy="10" rx="6" ry="8" />
    <ellipse cx="10" cy="0" rx="12" ry="10" />
  </g>
  
  <g class="paw" transform="translate(800, 340) rotate(15)">
    <ellipse cx="0" cy="-15" rx="8" ry="10" />
    <ellipse cx="20" cy="-15" rx="8" ry="10" />
    <ellipse cx="-5" cy="10" rx="6" ry="8" />
    <ellipse cx="25" cy="10" rx="6" ry="8" />
    <ellipse cx="10" cy="0" rx="12" ry="10" />
  </g>
  
  <g class="paw" transform="translate(1000, 370) rotate(-20)">
    <ellipse cx="0" cy="-15" rx="8" ry="10" />
    <ellipse cx="20" cy="-15" rx="8" ry="10" />
    <ellipse cx="-5" cy="10" rx="6" ry="8" />
    <ellipse cx="25" cy="10" rx="6" ry="8" />
    <ellipse cx="10" cy="0" rx="12" ry="10" />
  </g>
</svg>