<?xml version="1.0" encoding="UTF-8"?>
<svg width="600" height="100" viewBox="0 0 600 100" xmlns="http://www.w3.org/2000/svg">
  <!-- Small Paw Print Trail -->
  <g fill="#0084ff" opacity="0.5">
    <!-- Paw 1 -->
    <g transform="translate(50, 50) rotate(25)">
      <ellipse cx="0" cy="-6" rx="5" ry="6" />
      <ellipse cx="-7" cy="-3" rx="4" ry="5" />
      <ellipse cx="7" cy="-3" rx="4" ry="5" />
      <ellipse cx="-4" cy="6" rx="4" ry="5" />
      <ellipse cx="4" cy="6" rx="4" ry="5" />
    </g>
    
    <!-- Paw 2 -->
    <g transform="translate(110, 60) rotate(15)">
      <ellipse cx="0" cy="-6" rx="5" ry="6" />
      <ellipse cx="-7" cy="-3" rx="4" ry="5" />
      <ellipse cx="7" cy="-3" rx="4" ry="5" />
      <ellipse cx="-4" cy="6" rx="4" ry="5" />
      <ellipse cx="4" cy="6" rx="4" ry="5" />
    </g>
    
    <!-- Paw 3 -->
    <g transform="translate(170, 45) rotate(30)">
      <ellipse cx="0" cy="-6" rx="5" ry="6" />
      <ellipse cx="-7" cy="-3" rx="4" ry="5" />
      <ellipse cx="7" cy="-3" rx="4" ry="5" />
      <ellipse cx="-4" cy="6" rx="4" ry="5" />
      <ellipse cx="4" cy="6" rx="4" ry="5" />
    </g>
    
    <!-- Paw 4 -->
    <g transform="translate(230, 70) rotate(10)">
      <ellipse cx="0" cy="-6" rx="5" ry="6" />
      <ellipse cx="-7" cy="-3" rx="4" ry="5" />
      <ellipse cx="7" cy="-3" rx="4" ry="5" />
      <ellipse cx="-4" cy="6" rx="4" ry="5" />
      <ellipse cx="4" cy="6" rx="4" ry="5" />
    </g>
    
    <!-- Paw 5 -->
    <g transform="translate(290, 50) rotate(20)">
      <ellipse cx="0" cy="-6" rx="5" ry="6" />
      <ellipse cx="-7" cy="-3" rx="4" ry="5" />
      <ellipse cx="7" cy="-3" rx="4" ry="5" />
      <ellipse cx="-4" cy="6" rx="4" ry="5" />
      <ellipse cx="4" cy="6" rx="4" ry="5" />
    </g>
    
    <!-- Paw 6 -->
    <g transform="translate(350, 65) rotate(5)">
      <ellipse cx="0" cy="-6" rx="5" ry="6" />
      <ellipse cx="-7" cy="-3" rx="4" ry="5" />
      <ellipse cx="7" cy="-3" rx="4" ry="5" />
      <ellipse cx="-4" cy="6" rx="4" ry="5" />
      <ellipse cx="4" cy="6" rx="4" ry="5" />
    </g>
    
    <!-- Paw 7 -->
    <g transform="translate(410, 40) rotate(25)">
      <ellipse cx="0" cy="-6" rx="5" ry="6" />
      <ellipse cx="-7" cy="-3" rx="4" ry="5" />
      <ellipse cx="7" cy="-3" rx="4" ry="5" />
      <ellipse cx="-4" cy="6" rx="4" ry="5" />
      <ellipse cx="4" cy="6" rx="4" ry="5" />
    </g>
    
    <!-- Paw 8 -->
    <g transform="translate(470, 55) rotate(15)">
      <ellipse cx="0" cy="-6" rx="5" ry="6" />
      <ellipse cx="-7" cy="-3" rx="4" ry="5" />
      <ellipse cx="7" cy="-3" rx="4" ry="5" />
      <ellipse cx="-4" cy="6" rx="4" ry="5" />
      <ellipse cx="4" cy="6" rx="4" ry="5" />
    </g>
    
    <!-- Paw 9 -->
    <g transform="translate(530, 45) rotate(20)">
      <ellipse cx="0" cy="-6" rx="5" ry="6" />
      <ellipse cx="-7" cy="-3" rx="4" ry="5" />
      <ellipse cx="7" cy="-3" rx="4" ry="5" />
      <ellipse cx="-4" cy="6" rx="4" ry="5" />
      <ellipse cx="4" cy="6" rx="4" ry="5" />
    </g>
  </g>
</svg>