<?xml version="1.0" encoding="UTF-8"?>
<svg width="400" height="400" viewBox="0 0 400 400" xmlns="http://www.w3.org/2000/svg">
  <!-- Subtle Paw Print Pattern -->
  <g fill="white" opacity="0.2">
    <!-- Paw print 1 -->
    <g transform="translate(50, 50)">
      <ellipse cx="0" cy="-15" rx="10" ry="12" />
      <ellipse cx="-14" cy="-8" rx="8" ry="10" />
      <ellipse cx="14" cy="-8" rx="8" ry="10" />
      <ellipse cx="-8" cy="15" rx="8" ry="12" />
      <ellipse cx="8" cy="15" rx="8" ry="12" />
    </g>
    
    <!-- Paw print 2 -->
    <g transform="translate(150, 120)">
      <ellipse cx="0" cy="-15" rx="10" ry="12" />
      <ellipse cx="-14" cy="-8" rx="8" ry="10" />
      <ellipse cx="14" cy="-8" rx="8" ry="10" />
      <ellipse cx="-8" cy="15" rx="8" ry="12" />
      <ellipse cx="8" cy="15" rx="8" ry="12" />
    </g>
    
    <!-- Paw print 3 -->
    <g transform="translate(250, 60)">
      <ellipse cx="0" cy="-15" rx="10" ry="12" />
      <ellipse cx="-14" cy="-8" rx="8" ry="10" />
      <ellipse cx="14" cy="-8" rx="8" ry="10" />
      <ellipse cx="-8" cy="15" rx="8" ry="12" />
      <ellipse cx="8" cy="15" rx="8" ry="12" />
    </g>
    
    <!-- Paw print 4 -->
    <g transform="translate(90, 220)">
      <ellipse cx="0" cy="-15" rx="10" ry="12" />
      <ellipse cx="-14" cy="-8" rx="8" ry="10" />
      <ellipse cx="14" cy="-8" rx="8" ry="10" />
      <ellipse cx="-8" cy="15" rx="8" ry="12" />
      <ellipse cx="8" cy="15" rx="8" ry="12" />
    </g>
    
    <!-- Paw print 5 -->
    <g transform="translate(330, 180)">
      <ellipse cx="0" cy="-15" rx="10" ry="12" />
      <ellipse cx="-14" cy="-8" rx="8" ry="10" />
      <ellipse cx="14" cy="-8" rx="8" ry="10" />
      <ellipse cx="-8" cy="15" rx="8" ry="12" />
      <ellipse cx="8" cy="15" rx="8" ry="12" />
    </g>
    
    <!-- Paw print 6 -->
    <g transform="translate(180, 320)">
      <ellipse cx="0" cy="-15" rx="10" ry="12" />
      <ellipse cx="-14" cy="-8" rx="8" ry="10" />
      <ellipse cx="14" cy="-8" rx="8" ry="10" />
      <ellipse cx="-8" cy="15" rx="8" ry="12" />
      <ellipse cx="8" cy="15" rx="8" ry="12" />
    </g>
  </g>
</svg>