<?xml version="1.0" encoding="UTF-8"?>
<svg width="42" height="46" viewBox="0 0 42 46" fill="none" xmlns="http://www.w3.org/2000/svg">
  <path d="M29.9 28.2C26.9 29.6 23.8 31.7 21.6 34.6C18.2 39.2 17 45 13.6 45C10.9 45 9.4 41.5 9.4 37C9.4 33.8 10.6 29.1 12.6 26.6C14.6 24.1 19.4 21.1 21.9 19.8C24.4 18.5 28.1 17.6 30.6 17.6C33.2 17.6 34.9 18.5 34.9 19.8C34.9 21.1 32.9 26.8 29.9 28.2Z" fill="#ffffff" stroke="#171717" stroke-width="1.5"/>
  <ellipse cx="13.3" cy="13.2" rx="6.4" ry="7.4" transform="rotate(-22 13.3 13.2)" fill="#ffffff" stroke="#171717" stroke-width="1.5"/>
  <ellipse cx="23.4" cy="7.6" rx="6.3" ry="7.4" transform="rotate(8 23.4 7.6)" fill="#ffffff" stroke="#171717" stroke-width="1.5"/>
  <ellipse cx="33.2" cy="13.6" rx="5.9" ry="7" transform="rotate(32 33.2 13.6)" fill="#ffffff" stroke="#171717" stroke-width="1.5"/>
  <ellipse cx="35.2" cy="22.5" rx="5" ry="6.2" transform="rotate(48 35.2 22.5)" fill="#ffffff" stroke="#171717" stroke-width="1.5"/>
</svg>