<?xml version="1.0" encoding="UTF-8"?>
<svg width="38" height="42" viewBox="0 0 38 42" fill="none" xmlns="http://www.w3.org/2000/svg">
  <path d="M26.5 24.3C23.9 25.5 21.3 27.3 19.5 29.8C16.6 33.6 15.5 38.6 12.6 38.6C10.3 38.6 9 35.5 9 31.6C9 28.9 10.1 24.9 11.8 22.8C13.5 20.7 17.6 18.1 19.7 17C21.8 15.9 25 15.2 27.2 15.2C29.4 15.2 30.9 15.9 30.9 17C30.9 18.1 29.1 23 26.5 24.3Z" fill="#ffffff" stroke="#171717" stroke-width="1.5"/>
  <ellipse cx="12.5" cy="12.1" rx="5" ry="5.9" transform="rotate(-18 12.5 12.1)" fill="#ffffff" stroke="#171717" stroke-width="1.5"/>
  <ellipse cx="21.2" cy="7.6" rx="4.9" ry="5.9" transform="rotate(4 21.2 7.6)" fill="#ffffff" stroke="#171717" stroke-width="1.5"/>
  <ellipse cx="29.5" cy="12.1" rx="4.9" ry="5.9" transform="rotate(33 29.5 12.1)" fill="#ffffff" stroke="#171717" stroke-width="1.5"/>
  <ellipse cx="31.2" cy="19.4" rx="4" ry="5" transform="rotate(47 31.2 19.4)" fill="#ffffff" stroke="#171717" stroke-width="1.5"/>
</svg>