<?xml version="1.0" encoding="UTF-8"?>
<svg width="50" height="50" viewBox="0 0 50 50" xmlns="http://www.w3.org/2000/svg">
  <style>
    .paw {
      fill: #0084ff;
      transform-origin: center;
      animation: bounce 2s infinite alternate;
    }
    @keyframes bounce {
      0% { transform: scale(1) rotate(0deg); }
      100% { transform: scale(1.1) rotate(10deg); }
    }
  </style>
  <path class="paw" d="M35.7,35.2c-1-3.5-5.6-5.4-10.3-4.3c-4.7,1.1-7.7,4.9-6.7,8.4c1,3.5,5.6,5.4,10.3,4.3C33.7,42.5,36.7,38.7,35.7,35.2z
   M41.3,19c-1.8-2.3-4.9-2.5-7.1-0.6c-2.2,1.9-2.5,5.2-0.8,7.4c1.8,2.3,4.9,2.5,7.1,0.6C42.8,24.5,43.1,21.3,41.3,19z M16.5,25.8
  c1.8-2.3,1.5-5.5-0.8-7.4c-2.2-1.9-5.3-1.6-7.1,0.6c-1.8,2.3-1.5,5.5,0.8,7.4C11.6,28.3,14.7,28.1,16.5,25.8z M29,17.2
  c-0.6-3.1-3.9-5.1-7.2-4.5c-3.3,0.6-5.6,3.7-5,6.8c0.6,3.1,3.9,5.1,7.2,4.5C27.3,23.3,29.6,20.3,29,17.2z"/>
</svg>