<?xml version="1.0" encoding="UTF-8"?>
<svg width="1200" height="600" viewBox="0 0 1200 600" xmlns="http://www.w3.org/2000/svg">
  <!-- Fluffy Clouds Pattern -->
  <g fill="white" opacity="0.7">
    <!-- Large Cloud 1 -->
    <path d="M150,150 C120,130 80,140 60,170 C40,200 50,240 80,260 C100,272 130,270 155,250 C180,230 210,210 200,180 C190,150 175,130 150,150 Z" />
    
    <!-- Large Cloud 2 -->
    <path d="M550,100 C520,80 480,90 460,120 C440,150 450,190 480,210 C500,222 530,220 555,200 C580,180 610,160 600,130 C590,100 575,80 550,100 Z" />
    
    <!-- Medium Cloud 1 -->
    <path d="M900,200 C880,185 850,192 837,215 C823,237 830,265 850,280 C865,288 885,286 903,272 C920,258 941,238 935,215 C928,193 918,180 900,200 Z" />
    
    <!-- Medium Cloud 2 -->
    <path d="M350,350 C330,335 300,342 287,365 C273,387 280,415 300,430 C315,438 335,436 353,422 C370,408 391,388 385,365 C378,343 368,330 350,350 Z" />
    
    <!-- Medium Cloud 3 -->
    <path d="M700,450 C680,435 650,442 637,465 C623,487 630,515 650,530 C665,538 685,536 703,522 C720,508 741,488 735,465 C728,443 718,430 700,450 Z" />
    
    <!-- Small Cloud 1 -->
    <path d="M1050,350 C1035,340 1015,345 1005,360 C995,375 1000,395 1015,405 C1025,410 1040,409 1052,400 C1065,390 1080,375 1075,360 C1070,345 1062,335 1050,350 Z" />
    
    <!-- Small Cloud 2 -->
    <path d="M200,500 C185,490 165,495 155,510 C145,525 150,545 165,555 C175,560 190,559 202,550 C215,540 230,525 225,510 C220,495 212,485 200,500 Z" />
    
    <!-- Small Cloud 3 -->
    <path d="M950,500 C935,490 915,495 905,510 C895,525 900,545 915,555 C925,560 940,559 952,550 C965,540 980,525 975,510 C970,495 962,485 950,500 Z" />
  </g>
</svg>