<?xml version="1.0" encoding="UTF-8"?>
<svg width="600" height="400" viewBox="0 0 600 400" xmlns="http://www.w3.org/2000/svg">
  <!-- Fun cloud pattern -->
  <g opacity="0.4">
    <!-- Cloud 1 -->
    <path d="M100,80 C85,65 60,70 50,90 C40,110 50,130 70,135 C80,137 95,135 105,130 C115,125 130,115 125,100 C120,85 110,75 100,80 Z" fill="white" />
    
    <!-- Cloud 2 -->
    <path d="M250,150 C235,135 210,140 200,160 C190,180 200,200 220,205 C230,207 245,205 255,200 C265,195 280,185 275,170 C270,155 260,145 250,150 Z" fill="white" />
    
    <!-- Cloud 3 -->
    <path d="M450,100 C435,85 410,90 400,110 C390,130 400,150 420,155 C430,157 445,155 455,150 C465,145 480,135 475,120 C470,105 460,95 450,100 Z" fill="white" />
    
    <!-- Cloud 4 -->
    <path d="M150,250 C135,235 110,240 100,260 C90,280 100,300 120,305 C130,307 145,305 155,300 C165,295 180,285 175,270 C170,255 160,245 150,250 Z" fill="white" />
    
    <!-- Cloud 5 -->
    <path d="M350,320 C335,305 310,310 300,330 C290,350 300,370 320,375 C330,377 345,375 355,370 C365,365 380,355 375,340 C370,325 360,315 350,320 Z" fill="white" />
    
    <!-- Cloud 6 -->
    <path d="M500,230 C485,215 460,220 450,240 C440,260 450,280 470,285 C480,287 495,285 505,280 C515,275 530,265 525,250 C520,235 510,225 500,230 Z" fill="white" />
  </g>
</svg>