<?xml version="1.0" encoding="UTF-8"?>
<svg width="600" height="400" viewBox="0 0 600 400" xmlns="http://www.w3.org/2000/svg">
  <style>
    .fur {
      fill: #F5F5F5;
    }
    .tongue {
      fill: #FF6B6B;
    }
    .eyes {
      fill: #333;
    }
    .nose {
      fill: #222;
    }
    .collar {
      fill: #0084ff;
    }
    .collar-tag {
      fill: #ffeb3b;
    }
    .lawn {
      fill: #4CAF50;
    }
    .pant {
      animation: pant 2s infinite ease-in-out;
      transform-origin: center;
    }
    .tail {
      animation: wag 1.5s infinite alternate;
      transform-origin: 450px 310px;
    }
    @keyframes pant {
      0%, 100% { transform: scaleY(1); }
      50% { transform: scaleY(0.8); }
    }
    @keyframes wag {
      0% { transform: rotate(-5deg); }
      100% { transform: rotate(5deg); }
    }
  </style>

  <!-- Sky background -->
  <rect width="600" height="400" fill="#B3E0FF" />
  
  <!-- Lawn -->
  <rect x="0" y="280" width="600" height="120" class="lawn" />
  
  <!-- Sun -->
  <circle cx="80" cy="80" r="40" fill="#FFEB3B" />
  <circle cx="80" cy="80" r="30" fill="#FDD835" />
  
  <!-- Clouds -->
  <ellipse cx="200" cy="100" rx="60" ry="30" fill="white" />
  <ellipse cx="230" cy="80" rx="40" ry="20" fill="white" />
  <ellipse cx="170" cy="90" rx="40" ry="25" fill="white" />
  
  <ellipse cx="450" cy="60" rx="70" ry="35" fill="white" />
  <ellipse cx="480" cy="45" rx="40" ry="20" fill="white" />
  <ellipse cx="420" cy="55" rx="40" ry="25" fill="white" />
  
  <!-- Great Pyrenees Dog -->
  <g>
    <!-- Body -->
    <ellipse cx="400" cy="310" rx="120" ry="60" class="fur" />
    
    <!-- Tail -->
    <path class="tail fur" d="M480,290 C520,270 540,290 530,310" stroke="none" stroke-width="20" />
    
    <!-- Legs -->
    <rect x="330" y="350" width="25" height="50" rx="10" class="fur" />
    <rect x="380" y="350" width="25" height="50" rx="10" class="fur" />
    <rect x="430" y="350" width="25" height="50" rx="10" class="fur" />
    <rect x="480" y="350" width="25" height="50" rx="10" class="fur" />
    
    <!-- Neck and Head -->
    <ellipse cx="290" cy="280" rx="70" ry="60" class="fur" />
    
    <!-- Face -->
    <circle cx="250" cy="270" r="35" class="fur" />
    
    <!-- Ears -->
    <ellipse cx="235" cy="240" rx="15" ry="25" class="fur" transform="rotate(-20 235 240)" />
    <ellipse cx="270" cy="240" rx="15" ry="25" class="fur" transform="rotate(20 270 240)" />
    
    <!-- Eyes -->
    <ellipse cx="235" cy="265" rx="6" ry="5" class="eyes" />
    <ellipse cx="265" cy="265" rx="6" ry="5" class="eyes" />
    
    <!-- Nose -->
    <ellipse cx="250" cy="280" rx="12" ry="8" class="nose" />
    
    <!-- Mouth and Tongue -->
    <path d="M240,290 Q250,300 260,290" stroke="#333" stroke-width="2" fill="none" />
    <ellipse cx="250" cy="295" rx="8" ry="5" class="tongue pant" />
    
    <!-- Collar -->
    <path d="M280,300 Q290,320 300,315 Q310,310 320,315" stroke-width="10" class="collar" stroke="none" />
    <circle cx="300" cy="317" r="7" class="collar-tag" />
  </g>
  
  <!-- Grass tufts -->
  <g fill="#388E3C">
    <path d="M50,280 L60,260 L70,280" />
    <path d="M120,280 L130,260 L140,280" />
    <path d="M200,280 L210,265 L220,280" />
    <path d="M550,280 L560,260 L570,280" />
    <path d="M300,280 L310,260 L320,280" />
  </g>
  
  <!-- Flowers -->
  <g>
    <circle cx="100" cy="270" r="5" fill="#FFEB3B" />
    <circle cx="100" cy="270" r="3" fill="#FFA000" />
    <rect x="99" y="280" width="2" height="10" fill="#388E3C" />
    
    <circle cx="520" cy="270" r="5" fill="#FF5252" />
    <circle cx="520" cy="270" r="3" fill="#D32F2F" />
    <rect x="519" y="280" width="2" height="10" fill="#388E3C" />
    
    <circle cx="180" cy="270" r="5" fill="#E040FB" />
    <circle cx="180" cy="270" r="3" fill="#AA00FF" />
    <rect x="179" y="280" width="2" height="10" fill="#388E3C" />
  </g>
</svg>