<?xml version="1.0" encoding="UTF-8"?>
<svg width="1200" height="60" viewBox="0 0 1200 60" xmlns="http://www.w3.org/2000/svg">
  <style>
    .paw {
      fill: rgba(255, 255, 255, 0.6);
    }
    .paw-animated {
      animation: fade-in 3s ease-in-out infinite alternate;
    }
    @keyframes fade-in {
      0% { opacity: 0.2; }
      100% { opacity: 0.8; }
    }
  </style>

  <!-- Paw prints trail -->
  <g transform="translate(20, 10)">
    <!-- Paw set 1 -->
    <g class="paw paw-animated" opacity="0.6">
      <ellipse cx="10" cy="15" rx="8" ry="10" transform="rotate(-10 10 15)" />
      <ellipse cx="30" cy="10" rx="8" ry="10" transform="rotate(10 30 10)" />
      <ellipse cx="5" cy="35" rx="6" ry="7" transform="rotate(-10 5 35)" />
      <ellipse cx="25" cy="40" rx="6" ry="7" transform="rotate(10 25 40)" />
      <ellipse cx="18" cy="25" rx="10" ry="8" />
    </g>
    
    <!-- Paw set 2 -->
    <g class="paw" opacity="0.6" transform="translate(80, -5)">
      <ellipse cx="10" cy="15" rx="8" ry="10" transform="rotate(-10 10 15)" />
      <ellipse cx="30" cy="10" rx="8" ry="10" transform="rotate(10 30 10)" />
      <ellipse cx="5" cy="35" rx="6" ry="7" transform="rotate(-10 5 35)" />
      <ellipse cx="25" cy="40" rx="6" ry="7" transform="rotate(10 25 40)" />
      <ellipse cx="18" cy="25" rx="10" ry="8" />
    </g>
    
    <!-- Paw set 3 -->
    <g class="paw paw-animated" opacity="0.6" transform="translate(160, 5)">
      <ellipse cx="10" cy="15" rx="8" ry="10" transform="rotate(-10 10 15)" />
      <ellipse cx="30" cy="10" rx="8" ry="10" transform="rotate(10 30 10)" />
      <ellipse cx="5" cy="35" rx="6" ry="7" transform="rotate(-10 5 35)" />
      <ellipse cx="25" cy="40" rx="6" ry="7" transform="rotate(10 25 40)" />
      <ellipse cx="18" cy="25" rx="10" ry="8" />
    </g>
    
    <!-- Paw set 4 -->
    <g class="paw" opacity="0.6" transform="translate(240, -5)">
      <ellipse cx="10" cy="15" rx="8" ry="10" transform="rotate(-10 10 15)" />
      <ellipse cx="30" cy="10" rx="8" ry="10" transform="rotate(10 30 10)" />
      <ellipse cx="5" cy="35" rx="6" ry="7" transform="rotate(-10 5 35)" />
      <ellipse cx="25" cy="40" rx="6" ry="7" transform="rotate(10 25 40)" />
      <ellipse cx="18" cy="25" rx="10" ry="8" />
    </g>
    
    <!-- Paw set 5 -->
    <g class="paw paw-animated" opacity="0.6" transform="translate(320, 5)">
      <ellipse cx="10" cy="15" rx="8" ry="10" transform="rotate(-10 10 15)" />
      <ellipse cx="30" cy="10" rx="8" ry="10" transform="rotate(10 30 10)" />
      <ellipse cx="5" cy="35" rx="6" ry="7" transform="rotate(-10 5 35)" />
      <ellipse cx="25" cy="40" rx="6" ry="7" transform="rotate(10 25 40)" />
      <ellipse cx="18" cy="25" rx="10" ry="8" />
    </g>
    
    <!-- Paw set 6 -->
    <g class="paw" opacity="0.6" transform="translate(400, -5)">
      <ellipse cx="10" cy="15" rx="8" ry="10" transform="rotate(-10 10 15)" />
      <ellipse cx="30" cy="10" rx="8" ry="10" transform="rotate(10 30 10)" />
      <ellipse cx="5" cy="35" rx="6" ry="7" transform="rotate(-10 5 35)" />
      <ellipse cx="25" cy="40" rx="6" ry="7" transform="rotate(10 25 40)" />
      <ellipse cx="18" cy="25" rx="10" ry="8" />
    </g>
    
    <!-- Paw set 7 -->
    <g class="paw paw-animated" opacity="0.6" transform="translate(480, 5)">
      <ellipse cx="10" cy="15" rx="8" ry="10" transform="rotate(-10 10 15)" />
      <ellipse cx="30" cy="10" rx="8" ry="10" transform="rotate(10 30 10)" />
      <ellipse cx="5" cy="35" rx="6" ry="7" transform="rotate(-10 5 35)" />
      <ellipse cx="25" cy="40" rx="6" ry="7" transform="rotate(10 25 40)" />
      <ellipse cx="18" cy="25" rx="10" ry="8" />
    </g>
    
    <!-- Paw set 8 -->
    <g class="paw" opacity="0.6" transform="translate(560, -5)">
      <ellipse cx="10" cy="15" rx="8" ry="10" transform="rotate(-10 10 15)" />
      <ellipse cx="30" cy="10" rx="8" ry="10" transform="rotate(10 30 10)" />
      <ellipse cx="5" cy="35" rx="6" ry="7" transform="rotate(-10 5 35)" />
      <ellipse cx="25" cy="40" rx="6" ry="7" transform="rotate(10 25 40)" />
      <ellipse cx="18" cy="25" rx="10" ry="8" />
    </g>
    
    <!-- Paw set 9 -->
    <g class="paw paw-animated" opacity="0.6" transform="translate(640, 5)">
      <ellipse cx="10" cy="15" rx="8" ry="10" transform="rotate(-10 10 15)" />
      <ellipse cx="30" cy="10" rx="8" ry="10" transform="rotate(10 30 10)" />
      <ellipse cx="5" cy="35" rx="6" ry="7" transform="rotate(-10 5 35)" />
      <ellipse cx="25" cy="40" rx="6" ry="7" transform="rotate(10 25 40)" />
      <ellipse cx="18" cy="25" rx="10" ry="8" />
    </g>
    
    <!-- Paw set 10 -->
    <g class="paw" opacity="0.6" transform="translate(720, -5)">
      <ellipse cx="10" cy="15" rx="8" ry="10" transform="rotate(-10 10 15)" />
      <ellipse cx="30" cy="10" rx="8" ry="10" transform="rotate(10 30 10)" />
      <ellipse cx="5" cy="35" rx="6" ry="7" transform="rotate(-10 5 35)" />
      <ellipse cx="25" cy="40" rx="6" ry="7" transform="rotate(10 25 40)" />
      <ellipse cx="18" cy="25" rx="10" ry="8" />
    </g>
    
    <!-- Paw set 11 -->
    <g class="paw paw-animated" opacity="0.6" transform="translate(800, 5)">
      <ellipse cx="10" cy="15" rx="8" ry="10" transform="rotate(-10 10 15)" />
      <ellipse cx="30" cy="10" rx="8" ry="10" transform="rotate(10 30 10)" />
      <ellipse cx="5" cy="35" rx="6" ry="7" transform="rotate(-10 5 35)" />
      <ellipse cx="25" cy="40" rx="6" ry="7" transform="rotate(10 25 40)" />
      <ellipse cx="18" cy="25" rx="10" ry="8" />
    </g>
    
    <!-- Paw set 12 -->
    <g class="paw" opacity="0.6" transform="translate(880, -5)">
      <ellipse cx="10" cy="15" rx="8" ry="10" transform="rotate(-10 10 15)" />
      <ellipse cx="30" cy="10" rx="8" ry="10" transform="rotate(10 30 10)" />
      <ellipse cx="5" cy="35" rx="6" ry="7" transform="rotate(-10 5 35)" />
      <ellipse cx="25" cy="40" rx="6" ry="7" transform="rotate(10 25 40)" />
      <ellipse cx="18" cy="25" rx="10" ry="8" />
    </g>
  </g>
</svg>