<?xml version="1.0" encoding="UTF-8"?>
<svg width="30" height="30" viewBox="0 0 30 30" fill="none" xmlns="http://www.w3.org/2000/svg">
  <g opacity="0.7">
    <path d="M21.15 19.2C18.9 20.175 16.875 21.6 15.375 23.625C12.975 26.775 12.15 30.825 9.825 30.825C7.95 30.825 6.9 28.35 6.9 25.2C6.9 23.025 7.8 19.8 9.15 18.075C10.5 16.35 13.875 14.325 15.6 13.425C17.325 12.525 19.875 11.925 21.675 11.925C23.475 11.925 24.675 12.525 24.675 13.425C24.675 14.325 23.25 18.15 21.15 19.2Z" fill="#ffffff" stroke="#00A3F7" stroke-width="1.5"/>
    <ellipse cx="9.9" cy="9.675" rx="3.9" ry="4.8" transform="rotate(-20 9.9 9.675)" fill="#ffffff" stroke="#00A3F7" stroke-width="1.5"/>
    <ellipse cx="16.8" cy="6.075" rx="3.9" ry="4.8" transform="rotate(5 16.8 6.075)" fill="#ffffff" stroke="#00A3F7" stroke-width="1.5"/>
    <ellipse cx="23.4" cy="9.675" rx="3.9" ry="4.8" transform="rotate(35 23.4 9.675)" fill="#ffffff" stroke="#00A3F7" stroke-width="1.5"/>
    <ellipse cx="24.9" cy="15.675" rx="3.15" ry="4.05" transform="rotate(50 24.9 15.675)" fill="#ffffff" stroke="#00A3F7" stroke-width="1.5"/>
  </g>
</svg>