<?xml version="1.0" encoding="UTF-8"?>
<svg width="150" height="150" viewBox="0 0 150 150" xmlns="http://www.w3.org/2000/svg">
  <!-- Background Circle -->
  <circle cx="75" cy="75" r="75" fill="#e6f7ff" />
  
  <!-- Person with dog -->
  <g transform="translate(75, 75)">
    <!-- Man -->
    <circle cx="0" cy="-25" r="30" fill="#ffe4c4" stroke="#333" stroke-width="1.5" /> <!-- Head -->
    <path d="M-25,-40 C-20,-20 20,-20 25,-40" fill="#333" /> <!-- Hair -->
    <rect x="-25" y="-40" width="50" height="20" fill="#333" /> <!-- Hair top -->
    <ellipse cx="-12" cy="-25" rx="3" ry="4" fill="#8b4513" /> <!-- Left eye -->
    <ellipse cx="12" cy="-25" rx="3" ry="4" fill="#8b4513" /> <!-- Right eye -->
    <path d="M-10,-15 C0,-12 10,-15 0,-10" fill="#cd5c5c" /> <!-- Mouth/smile -->
    <path d="M-8,-5 L8,-5" stroke="#333" stroke-width="1.5" /> <!-- Beard -->
    
    <!-- Dog -->
    <g transform="translate(35, 15) scale(0.6)">
      <ellipse cx="0" cy="0" rx="25" ry="15" fill="#d2b48c" stroke="#333" stroke-width="2" /> <!-- Body -->
      <circle cx="-20" cy="-5" r="15" fill="#d2b48c" stroke="#333" stroke-width="2" /> <!-- Head -->
      <ellipse cx="-25" cy="-5" rx="2" ry="3" fill="#333" /> <!-- Eye -->
      <ellipse cx="-15" cy="-5" rx="2" ry="3" fill="#333" /> <!-- Eye -->
      <circle cx="-20" cy="0" r="3" fill="#333" /> <!-- Nose -->
      <path d="M30,0 Q40,-10 45,0" fill="#d2b48c" stroke="#333" stroke-width="2" /> <!-- Tail -->
      <path d="M-35,-10 Q-45,-15 -40,0" fill="#d2b48c" stroke="#333" stroke-width="2" /> <!-- Ear -->
      <path d="M-5,-15 Q5,-20 0,0" fill="#d2b48c" stroke="#333" stroke-width="2" /> <!-- Ear -->
    </g>
    
    <!-- Business attire hint -->
    <path d="M-20,30 L0,50 L20,30" fill="none" stroke="#333" stroke-width="3" /> <!-- Tie/Collar -->
  </g>
</svg>