<?xml version="1.0" encoding="UTF-8"?>
<svg width="150" height="150" viewBox="0 0 150 150" xmlns="http://www.w3.org/2000/svg">
  <!-- Background Circle -->
  <circle cx="75" cy="75" r="75" fill="#f5f5dc" />
  
  <!-- Person with dog and children -->
  <g transform="translate(75, 75)">
    <!-- Woman -->
    <circle cx="0" cy="-30" r="25" fill="#ffe4e1" stroke="#333" stroke-width="1.5" /> <!-- Head -->
    <path d="M-25,-40 C-30,-25 -25,-10 25,-10 C30,-25 25,-40 -25,-40" fill="#8b4513" /> <!-- Hair -->
    <ellipse cx="-10" cy="-30" rx="3" ry="4" fill="#4682b4" /> <!-- Left eye -->
    <ellipse cx="10" cy="-30" rx="3" ry="4" fill="#4682b4" /> <!-- Right eye -->
    <path d="M-8,-20 C0,-15 8,-20 0,-22" fill="#db7093" /> <!-- Mouth/smile -->
    
    <!-- Child 1 - small figure -->
    <g transform="translate(-25, 10) scale(0.4)">
      <circle cx="0" cy="-30" r="25" fill="#ffe4e1" stroke="#333" stroke-width="2" /> <!-- Head -->
      <path d="M-20,-45 C-25,-30 -20,-15 20,-15 C25,-30 20,-45 -20,-45" fill="#ffd700" /> <!-- Hair - blonde -->
      <ellipse cx="-10" cy="-30" rx="3" ry="4" fill="#4682b4" /> <!-- Left eye -->
      <ellipse cx="10" cy="-30" rx="3" ry="4" fill="#4682b4" /> <!-- Right eye -->
      <path d="M-8,-20 C0,-15 8,-20 0,-22" fill="#db7093" /> <!-- Mouth/smile -->
    </g>
    
    <!-- Child 2 - small figure -->
    <g transform="translate(25, 15) scale(0.35)">
      <circle cx="0" cy="-30" r="25" fill="#ffe4e1" stroke="#333" stroke-width="2" /> <!-- Head -->
      <path d="M-20,-45 C-25,-30 -20,-15 20,-15 C25,-30 20,-45 -20,-45" fill="#8b4513" /> <!-- Hair - brown -->
      <ellipse cx="-10" cy="-30" rx="3" ry="4" fill="#4682b4" /> <!-- Left eye -->
      <ellipse cx="10" cy="-30" rx="3" ry="4" fill="#4682b4" /> <!-- Right eye -->
      <path d="M-8,-20 C0,-15 8,-20 0,-22" fill="#db7093" /> <!-- Mouth/smile -->
    </g>
    
    <!-- Dog -->
    <g transform="translate(0, 25) scale(0.5)">
      <ellipse cx="0" cy="0" rx="25" ry="15" fill="white" stroke="#333" stroke-width="2" /> <!-- Body -->
      <circle cx="-20" cy="-5" r="15" fill="white" stroke="#333" stroke-width="2" /> <!-- Head -->
      <ellipse cx="-25" cy="-5" rx="2" ry="3" fill="#333" /> <!-- Eye -->
      <ellipse cx="-15" cy="-5" rx="2" ry="3" fill="#333" /> <!-- Eye -->
      <circle cx="-20" cy="0" r="3" fill="#333" /> <!-- Nose -->
      <path d="M30,0 Q40,-10 45,0" fill="white" stroke="#333" stroke-width="2" /> <!-- Tail -->
      <path d="M-35,-10 Q-45,-15 -40,0" fill="white" stroke="#333" stroke-width="2" /> <!-- Ear -->
      <path d="M-5,-15 Q5,-20 0,0" fill="white" stroke="#333" stroke-width="2" /> <!-- Ear -->
    </g>
  </g>
</svg>