<?xml version="1.0" encoding="UTF-8"?>
<svg width="150" height="150" viewBox="0 0 150 150" xmlns="http://www.w3.org/2000/svg">
  <!-- Background Circle -->
  <circle cx="75" cy="75" r="75" fill="#f0f8ff" />
  
  <!-- Person with dog -->
  <g transform="translate(75, 75)">
    <!-- Woman -->
    <circle cx="0" cy="-25" r="30" fill="#ffdab9" stroke="#333" stroke-width="1.5" /> <!-- Head -->
    <path d="M-20,-15 C-30,-5 -30,15 0,20 C30,15 30,-5 20,-15 Z" fill="#f4a460" /> <!-- Hair -->
    <ellipse cx="-12" cy="-25" rx="3" ry="4" fill="#6b8e23" /> <!-- Left eye -->
    <ellipse cx="12" cy="-25" rx="3" ry="4" fill="#6b8e23" /> <!-- Right eye -->
    <path d="M-8,-15 C0,-10 8,-15 0,-18 Z" fill="#cd5c5c" /> <!-- Mouth/smile -->
    
    <!-- Dog -->
    <g transform="translate(35, 10) scale(0.6)">
      <ellipse cx="0" cy="0" rx="25" ry="15" fill="white" stroke="#333" stroke-width="2" /> <!-- Body -->
      <circle cx="-20" cy="-5" r="15" fill="white" stroke="#333" stroke-width="2" /> <!-- Head -->
      <ellipse cx="-25" cy="-5" rx="2" ry="3" fill="#333" /> <!-- Eye -->
      <ellipse cx="-15" cy="-5" rx="2" ry="3" fill="#333" /> <!-- Eye -->
      <circle cx="-20" cy="0" r="3" fill="#333" /> <!-- Nose -->
      <path d="M30,0 Q40,-10 45,0" fill="white" stroke="#333" stroke-width="2" /> <!-- Tail -->
      <path d="M-35,-10 Q-45,-15 -40,0" fill="white" stroke="#333" stroke-width="2" /> <!-- Ear -->
      <path d="M-5,-15 Q5,-20 0,0" fill="white" stroke="#333" stroke-width="2" /> <!-- Ear -->
    </g>
  </g>
</svg>